<svg width="295" height="152" viewBox="0 0 295 152" fill="none" xmlns="http://www.w3.org/2000/svg">
<path d="M43.4381 36.0962C45.26 15.5479 44.3583 8.88669 36.0583 10.2189C30.6723 11.0754 28.7645 17.0704 28.1848 28.9623C27.8535 35.5283 27.5223 45.517 28.2676 54.2686C29.6754 71.0137 35.1474 71.6798 41.6131 72.3459H8.45635C14.9221 71.6798 20.7253 71.204 21.8847 54.2686C22.7128 45.517 22.2988 35.3349 21.8847 28.9623C21.305 17.0704 18.8175 11.0754 13.6768 10.2189C4.47509 8.68409 5.05786 20.7816 6.62215 36.0962L0 5.74949C3.39849 6.70108 12.1033 8.59507 25.2004 8.59507C38.2974 8.59507 46.671 6.69494 50.0695 5.74335L43.4381 36.0962Z" fill="white"/>
<path d="M51.7258 37.6188C51.7258 19.3542 63.415 4.22693 78.2542 4.22693C93.0935 4.22693 104.862 19.3542 104.862 37.6188C104.862 59.5024 93.5137 73.8685 78.2542 73.8685C64.2431 73.8685 51.7258 59.5024 51.7258 37.6188ZM90.8544 67.3945C98.9764 62.5445 102.126 48.8445 94.4185 30.4818C86.7075 11.4499 73.4448 5.92445 67.1447 9.74005C59.1055 14.3108 55.2101 29.5333 62.9181 48.8476C71.7885 67.3976 84.223 71.6798 90.8544 67.3976V67.3945Z" fill="white"/>
<path d="M106.522 37.6188C106.522 19.3542 118.211 4.22693 133.047 4.22693C147.883 4.22693 159.659 19.3542 159.659 37.6188C159.659 59.5024 148.31 73.8685 133.047 73.8685C119.039 73.8685 106.522 59.5024 106.522 37.6188ZM145.647 67.3945C153.772 62.5445 156.923 48.8445 149.212 30.4818C141.504 11.4499 128.241 5.92445 121.941 9.74005C113.898 14.3077 110.003 29.5302 117.711 48.8445C126.581 67.3976 139.016 71.6798 145.647 67.3976V67.3945Z" fill="white"/>
<path d="M208.648 72.3459H164.216C168.443 66.5412 171.013 57.0283 170.599 38.951C170.185 21.6381 164.796 6.60592 161.315 5.74948H201.106C197.045 5.84464 182.371 6.97735 177.065 11.0754C170.102 16.4995 178.227 30.58 175.574 53.4122C174.495 62.5475 176.651 70.1572 185.696 70.1572C207.581 71.5846 204.762 56.0767 202.937 36.8575L208.648 72.3459Z" fill="white"/>
<path d="M212.461 72.3459C219.758 72.1556 224.316 69.6814 225.724 56.5525C226.472 49.704 225.227 44.7557 230.367 39.3316C234.263 35.2428 241.308 29.2478 240.232 27.6301C238.324 24.7753 227.797 37.3333 220.669 45.8977C217.602 49.6089 213.789 53.2219 211.467 50.5574C208.98 47.7057 210.473 42.4719 215.694 37.9042C220.337 33.8154 221.911 32.6858 225.061 29.6161C228.46 26.2856 226.223 19.342 225.227 15.8211C222.988 8.03024 218.512 5.83236 212.461 5.74948H245.621C238.824 5.74948 235.091 9.26732 233.849 15.8333C231.941 25.7269 230.781 27.1543 228.46 29.4381C221.745 36.0011 216.273 40.4736 218.098 41.901C220.586 43.709 231.692 30.1994 237.992 22.1108C240.728 18.593 244.624 16.4995 247.36 19.4494C249.682 21.9051 247.691 26.6785 243.961 30.2945C240.232 33.9106 238.658 34.4816 235.591 37.143C228.956 42.8526 231.775 50.5574 232.772 56.5525C234.919 69.6814 237.744 72.0604 245.621 72.3459H212.461Z" fill="white"/>
<path d="M134.513 147.771H89.3545C94.529 142.098 96.7619 132.591 96.1362 118.492C95.4215 102.395 90.425 90.3833 86.229 89.3826C100.062 92.5505 123.892 93.2197 129.514 89.3826L136.743 115.99C136.387 114.824 132.369 102.143 121.484 96.7221C116.932 93.8029 99.3506 91.1323 99.3506 99.3099C99.3506 114.824 118.895 119.57 122.554 115.156C123.892 113.154 124.069 109.151 123.892 107.65L128.891 130.673C111.932 110.152 102.473 117.574 101.669 126.249C101.403 128.254 101.314 132.005 102.918 137.177C105.954 143.35 110.684 145.604 116.128 145.852C133.351 146.687 136.387 133.267 140.666 116.657L134.513 147.771Z" fill="white"/>
<path d="M146.203 131.689C149.506 92.8175 172.354 87.4855 191.183 88.0626C198.413 88.3143 194.306 93.7353 195.557 138.276C195.557 143.614 198.931 147.792 204.839 147.792H169.139C175.298 147.292 181.715 146.457 185.024 142.288C189.131 137.033 189.398 129.024 189.398 115.094C189.398 109.59 188.785 107.002 186.365 107.42C173.869 109.59 172.71 149.127 158.073 149.127C149.417 149.106 145.132 144.274 146.203 131.689ZM184.132 97.2225C186.721 91.4669 184.847 90.3004 181.457 90.4692C147.988 92.0532 143.795 139.277 159.769 138.933C167.802 138.749 180.206 105.98 184.132 97.2225Z" fill="white"/>
<path d="M39.7421 87.421C40.0488 86.5861 40.2451 86.1717 40.3555 86.1717C40.49 86.4636 40.5799 86.774 40.6224 87.0926C41.0313 88.5415 41.6264 89.6537 42.4075 90.4293C43.1886 91.2049 44.3491 91.8731 45.8888 92.4338C46.72 92.7653 47.1372 92.9618 47.1372 93.017C47.1372 93.0723 46.7783 93.2104 46.0667 93.4345C43.9237 94.0485 42.4658 95.0768 41.6928 96.5195C41.0406 97.8424 40.7046 99.2989 40.7113 100.774C40.6991 101.731 40.8189 102.686 41.0671 103.61C41.7808 106.336 43.5659 108.505 46.4225 110.115C48.3262 111.228 49.3681 112.591 49.548 114.204C49.5544 114.33 49.5687 114.455 49.591 114.578C49.6174 114.731 49.6328 114.884 49.637 115.039C49.6071 116.862 49.065 118.639 48.0727 120.168C47.0319 121.867 45.7385 123.049 44.1926 123.714C43.1726 124.127 42.0783 124.326 40.9782 124.297C39.2921 124.272 37.6149 124.048 35.9817 123.628C34.8136 123.33 33.6162 123.162 32.4114 123.127C30.7469 123.127 29.4382 123.656 28.4854 124.714C26.8781 126.327 26.0745 128.69 26.0745 131.802C26.0372 134.571 26.83 137.288 28.3504 139.602C29.8818 141.916 32.0363 143.749 34.5646 144.888C36.1779 145.68 37.9456 146.106 39.7421 146.138C42.0037 146.138 44.3235 145.388 46.7016 143.888C48.9682 142.547 50.8574 140.652 52.192 138.381C53.5906 136.044 54.29 133.792 54.29 131.627C54.3218 130.592 54.1118 129.564 53.6765 128.625C53.2185 127.629 52.5118 126.767 51.6245 126.123C50.7233 125.426 49.692 124.916 48.591 124.622C48.4101 124.567 48.1739 124.496 47.8764 124.414C47.7015 124.356 47.5219 124.314 47.3396 124.288C47.22 124.232 47.2967 124.15 47.5635 124.036C47.8985 123.903 48.2417 123.793 48.591 123.705C50.4314 123.091 51.7697 122.367 52.606 121.534C53.4424 120.701 54.0967 119.45 54.5691 117.78C54.6152 117.45 54.737 117.135 54.9249 116.859C55.0445 116.859 55.1948 117.194 55.3727 117.86C55.9677 119.64 56.6967 120.948 57.5596 121.783C58.4225 122.618 59.7466 123.285 61.5317 123.784C62.3016 124.005 62.6911 124.174 62.6911 124.285C61.1575 124.73 60.2373 125.006 59.9306 125.12C57.0678 126.347 55.6365 128.543 55.6365 131.707C55.6706 133.887 56.2869 136.019 57.4216 137.88C58.7292 140.271 60.6174 142.294 62.9119 143.762C65.2614 145.29 67.6559 146.055 70.0954 146.055C73.6656 146.055 76.8781 144.637 79.7326 141.8C82.352 139.244 83.6617 135.88 83.6617 131.707C83.6453 131.09 83.5859 130.474 83.4838 129.865C83.0054 126.642 81.755 124.557 79.7326 123.609C79.0059 123.274 78.2141 123.103 77.4138 123.109C75.9948 123.159 74.5852 123.359 73.2086 123.708C71.7798 124.074 70.3126 124.27 68.8378 124.291C66.5742 124.291 64.6102 123.428 62.9457 121.703C61.1605 119.925 60.268 117.674 60.268 114.95C60.2965 114.215 60.417 113.487 60.6269 112.783C60.9827 111.727 61.9642 110.754 63.5714 109.863C65.5917 108.693 66.9893 107.363 67.7643 105.873C68.5495 104.322 68.9483 102.604 68.9268 100.866C68.971 99.3871 68.6329 97.9216 67.9453 96.6116C67.111 95.1668 65.7123 94.1385 63.7493 93.5266C62.7984 93.2473 62.32 93.0815 62.32 93.0263C62.32 92.9157 62.6788 92.7745 63.3935 92.6088C64.9966 92.1647 66.1714 91.5948 66.9177 90.899C67.6641 90.2032 68.3041 89.1329 68.8378 87.6881C68.9544 87.4077 69.0433 87.2031 69.1047 87.0742C69.163 86.936 69.2243 86.7826 69.2826 86.6137C69.3172 86.4916 69.3779 86.3785 69.4605 86.2822C69.5188 86.2269 69.5494 86.2269 69.5494 86.2822C70.2651 88.3286 70.9501 89.7468 71.6045 90.5368C72.2588 91.3267 73.3589 91.9662 74.9048 92.4553C75.9753 92.7868 76.512 92.9833 76.512 93.0385C76.512 93.0938 76.1256 93.2319 75.3526 93.456C73.1504 94.1211 71.6924 95.0522 70.9788 96.2494C70.2651 97.4466 69.9083 99.4347 69.9083 102.214C69.9083 105.717 68.4207 108.414 65.4455 110.305C64.0754 111.196 63.2125 112.002 62.8567 112.724C62.6175 113.224 62.5582 114.058 62.6788 115.226C63.1553 119.008 64.9701 120.899 68.1232 120.899H68.6569C70.2641 120.729 71.7813 120.006 73.2086 118.729C75.5888 116.672 77.9403 115.644 80.2633 115.644C80.4133 115.646 80.563 115.659 80.7111 115.683C80.8578 115.71 81.0066 115.725 81.1558 115.726C82.6912 115.978 84.0766 116.796 85.0389 118.019C86.1946 119.451 86.9493 121.164 87.2259 122.983C87.4078 124.03 87.4971 125.091 87.4927 126.154C87.4546 129.539 86.8512 132.893 85.7076 136.078C84.5175 139.529 83.2088 142.226 81.7815 144.17C78.2113 148.732 74.3731 151.011 70.2672 151.009C69.5168 151.012 68.7686 150.928 68.0373 150.761C65.2972 150.091 62.6788 148.284 60.1821 145.34C57.6854 142.395 56.0495 139.223 55.2745 135.824L54.9034 134.967C54.7368 135.369 54.6174 135.79 54.5476 136.22C54.0119 138.722 52.7921 141.266 50.8884 143.851C48.9847 146.435 46.9317 148.34 44.7294 149.563C43.1571 150.468 41.3805 150.956 39.5673 150.982C36.6493 150.982 33.8223 149.786 31.0864 147.396C28.3504 145.006 26.1481 141.724 24.4796 137.552C23.0242 134.038 22.2668 130.274 22.2497 126.47C22.2497 123.024 22.9337 120.356 24.3017 118.465C25.6696 116.623 27.3362 115.702 29.3012 115.702C31.7407 115.702 34.0606 116.647 36.2608 118.538C38.2831 120.204 40.1234 121.038 41.7818 121.04C42.4192 121.032 43.0483 120.895 43.6314 120.637C44.2144 120.379 44.7392 120.005 45.1742 119.539C46.1108 118.667 46.7638 117.533 47.0482 116.285C47.1783 115.68 47.238 115.062 47.2261 114.443C47.2638 113.619 47.0109 112.807 46.5115 112.15C45.8337 111.392 45.0532 110.733 44.1926 110.192C42.5241 109.136 41.4086 108.024 40.8463 106.855C40.284 105.687 39.9118 103.768 39.7298 101.099C39.6112 98.7072 39.1951 97.0107 38.4815 96.01C37.6472 94.8988 36.4274 94.0925 34.8223 93.5911C33.7487 93.3148 33.215 93.1183 33.215 93.0078C33.215 92.8973 33.5401 92.7561 34.1965 92.5904C35.861 92.091 37.0654 91.4935 37.8097 90.7977C38.5673 90.1039 39.2053 88.9804 39.7421 87.421Z" fill="white"/>
<path d="M244.786 86.1963C244.845 86.141 245.292 86.1134 246.127 86.1134C247.648 86.087 249.169 86.1701 250.679 86.362C254.759 86.9647 258.575 88.7476 261.656 91.4914C264.867 94.2992 266.473 97.6758 266.475 101.621C266.464 104.831 265.503 107.966 263.714 110.631C262.761 112.076 261.303 113.604 259.34 115.217C257.377 116.829 255.681 117.886 254.252 118.388C253.951 118.485 253.666 118.626 253.405 118.805C253.375 118.861 253.568 118.943 253.985 119.054C255.531 119.332 257.167 120.083 258.893 121.307C260.134 122.22 261.169 123.385 261.929 124.727C262.543 125.855 262.851 127.125 262.822 128.41C262.8 129.876 262.593 131.333 262.208 132.748C262.04 133.347 261.95 133.967 261.941 134.59C261.941 136.65 263.102 137.846 265.423 138.178C266.432 138.344 266.404 138.595 265.331 138.93C263.899 139.376 262.829 139.932 262.119 140.597C261.405 141.263 260.81 142.294 260.334 143.667C259.978 144.667 259.721 144.726 259.531 143.835C258.745 141.058 256.865 139.363 253.89 138.749C253.411 138.638 253.175 138.528 253.175 138.414C253.175 138.362 253.411 138.279 253.89 138.166C255.436 137.889 256.626 137.361 257.46 136.582C258.532 135.636 259.067 133.999 259.067 131.67C259.067 126.108 255.556 122.381 248.535 120.491C247.048 120.104 244.787 119.825 241.753 119.656C240.383 119.604 237.884 119.049 234.257 117.989C231.934 117.324 230.149 116.99 228.901 116.988C228.245 116.988 227.797 117.102 227.561 117.323C227.226 117.559 226.982 117.903 226.87 118.297C226.758 118.692 226.785 119.113 226.947 119.49C227.481 121.215 228.968 122.3 231.407 122.744C236.585 123.8 239.679 125.329 240.692 127.333C240.876 127.693 240.968 128.094 240.958 128.499C240.958 130.446 239.619 132.058 236.94 133.337C235.99 133.836 233.581 134.643 229.714 135.756C224.537 137.258 221.621 138.486 220.966 139.44C220.492 140.105 220.522 140.882 221.055 141.773C222.165 143.303 223.775 144.396 225.607 144.861L226.677 145.109L225.607 145.444C224 145.943 222.869 146.541 222.215 147.237C221.56 147.932 220.906 149.17 220.252 150.951C220.193 151.117 220.074 151.006 219.896 150.616C219.743 150.383 219.624 150.13 219.54 149.864C219.004 148.477 218.319 147.476 217.485 146.862C216.651 146.248 215.342 145.664 213.559 145.109C213.815 144.993 214.085 144.909 214.363 144.861C215.491 144.57 216.547 144.051 217.467 143.335C218.417 142.613 218.983 141.946 219.163 141.334C219.522 139.943 219.905 138.97 220.322 138.411C221.277 137.411 223.539 136.08 227.107 134.421C230.317 132.863 232.28 131.641 232.996 130.752C233.769 129.862 234.155 129.084 234.155 128.416C234.163 127.947 234.04 127.485 233.8 127.081C233.143 125.8 231.685 124.572 229.426 123.398C227.046 122.231 225.855 120.758 225.855 118.977V118.394C225.974 117.449 226.212 116.781 226.57 116.393C226.929 116.003 227.521 115.806 228.355 115.806C229.306 115.806 230.675 116.057 232.462 116.558C234.904 117.312 237.415 117.815 239.959 118.059C241.149 118.118 241.744 118.059 241.744 117.894C241.744 117.783 241.949 117.725 242.357 117.725C244.619 117.725 247.148 117.03 249.945 115.641C254.585 113.303 257.53 109.939 258.779 105.547C258.976 104.672 259.067 103.777 259.049 102.88C259.049 101.434 258.926 100.375 258.69 99.7089C257.441 95.9271 254.406 92.9239 249.587 90.6995C247.446 89.754 245.81 89.226 244.679 89.1155C243.84 89.104 243.004 89.0197 242.179 88.8638C241.108 88.7533 240.305 88.698 239.771 88.698C236.794 88.698 234.414 89.312 232.631 90.5398C231.785 91.1497 231.006 91.8484 230.309 92.6241C229.088 93.9744 227.556 95.006 225.846 95.6293C225.135 95.9056 223.38 96.0438 220.583 96.0438H216.565L215.316 96.5441C212.544 97.7978 210.19 99.8223 208.535 102.376C208.118 103.043 207.82 103.267 207.642 103.043C207.52 102.766 207.314 102.291 207.029 101.624C206.664 100.747 206.145 99.9419 205.495 99.2485C204.961 98.7205 204.069 98.2334 202.817 97.7873L201.391 97.2041C202.641 96.758 203.518 96.4244 204.023 96.2034C204.673 95.8768 205.262 95.4395 205.762 94.911C206.43 94.2503 206.921 93.4323 207.191 92.5321C207.426 91.7564 207.665 91.3676 207.906 91.3656C208.142 91.3656 208.559 91.559 209.154 91.9488C212.456 93.8927 216.212 94.9285 220.043 94.951C221.136 94.9738 222.228 94.8624 223.294 94.6194C225.018 94.2879 226.802 93.2043 228.647 91.3686C230.374 89.6435 232.13 88.4617 233.913 87.8232C235.696 87.1847 238.463 86.7253 242.213 86.4449C243.931 86.3344 244.788 86.2515 244.786 86.1963Z" fill="white"/>
<path d="M286.378 5.04346C287.151 4.22488 287.897 2.54373 288.617 0C288.844 0.526415 289.038 1.06674 289.197 1.61771C289.749 3.33059 290.371 4.53594 291.062 5.23378C291.753 5.93162 292.845 6.5343 294.337 7.04182C294.779 7.16665 295 7.29251 295 7.41938L294.172 7.80002C292.833 8.14903 291.632 8.89868 290.73 9.94879C289.929 10.9311 289.307 12.3104 288.866 14.0867L288.626 14.7344C288.443 14.2078 288.305 13.6666 288.212 13.1167C287.949 12.0231 287.422 11.0105 286.679 10.1667C285.875 9.21514 285.173 8.73934 284.565 8.73934C283.678 8.73934 281.633 10.1719 278.431 13.0369C275.282 15.7668 273.044 17.5902 271.717 18.507C270.391 19.4292 268.938 20.1531 267.404 20.6558C266.412 20.972 265.378 21.1325 264.337 21.1316C263.03 21.1133 261.738 20.8552 260.524 20.3703C259.604 19.9783 258.622 19.7528 257.623 19.7042C256.514 19.7042 255.713 20.2751 255.218 21.4171C255.058 21.7091 254.973 22.0359 254.97 22.3687C254.97 23.3172 255.583 24.4929 256.81 25.8865C257.843 27.0223 259.686 28.3187 262.34 29.7758C264.714 31.0466 266.371 32.3154 267.312 33.5822C268.361 34.9144 268.887 36.1197 268.889 37.1982C268.889 38.7822 267.728 40.5216 265.407 42.4167C263.363 44.0681 262.34 45.9396 262.34 48.0311C262.34 51.5817 263.721 55.2284 266.484 58.9714C270.132 63.8603 274.553 66.3048 279.747 66.3048C280.809 66.323 281.869 66.195 282.897 65.9242C284.663 65.4801 285.934 64.7505 286.709 63.7355C287.523 62.7498 288.066 61.5692 288.286 60.3097C288.507 59.1064 288.783 59.1382 289.114 60.4049C289.611 62.1178 290.192 63.3549 290.856 64.1161C291.521 64.8774 292.571 65.5118 294.006 66.0193C294.669 66.2096 295 66.4 295 66.5903C295 66.6517 294.807 66.7468 294.42 66.8727C292.762 67.325 291.546 68.0566 290.773 69.0675C290.109 69.8288 289.556 71.0024 289.114 72.5884L288.626 74.0189C288.516 73.6382 288.405 73.2269 288.295 72.791C287.917 71.2273 287.146 69.786 286.056 68.604C285.228 67.7169 284.452 67.2718 283.734 67.2718C283.568 67.2718 283.044 67.3362 282.161 67.4621C280.684 67.7504 279.186 67.9096 277.682 67.9379C275.105 67.9002 272.554 67.4184 270.14 66.5135C266.474 65.2307 263.213 62.9979 260.69 60.0427C257.98 56.8887 256.048 53.1411 255.052 49.1024C254.543 47.3033 254.264 45.4465 254.224 43.577C254.224 40.0264 255.826 37.8377 259.031 37.011C260.744 36.5689 261.601 36.1597 261.601 35.7831C261.601 35.2735 261.214 34.4959 260.442 33.4502C259.644 32.3813 258.726 31.408 257.706 30.5493C255.661 28.8365 254.39 26.9946 253.893 25.0239C253.759 24.5239 253.703 24.0062 253.727 23.4891C253.727 21.2687 254.362 19.7472 255.632 18.9245C256.133 18.6073 257.045 18.4487 258.368 18.4487C259.559 18.4386 260.749 18.5021 261.932 18.639C262.565 18.7134 263.203 18.7452 263.84 18.7342C265.16 18.7555 266.471 18.5123 267.696 18.0189C268.632 17.6558 269.511 17.1596 270.306 16.5455C271.32 15.6435 272.289 14.6906 273.207 13.6907C274.344 12.4821 275.562 11.3539 276.854 10.3141C278.062 9.48237 279.367 8.80197 280.74 8.2881C283.615 7.01112 285.495 5.92957 286.378 5.04346ZM284.308 27.0131C284.639 25.8712 284.829 25.334 284.887 25.3954C285.053 25.5857 285.274 26.2201 285.55 27.2985C286.268 29.8361 287.18 31.7547 288.286 33.0542C289.392 34.3537 291.049 35.4168 293.258 36.2436C294.309 36.6242 294.834 36.8769 294.834 37.0018C294.834 37.1266 294.309 37.3814 293.258 37.7661C290.548 38.7893 288.708 39.9783 287.737 41.3331C286.765 42.6878 285.845 45.0822 284.976 48.5161C284.976 48.5806 284.949 48.5621 284.893 48.467C284.81 48.3148 284.74 48.1556 284.685 47.9912C284.602 47.7702 284.519 47.5338 284.436 47.279C284.354 47.0242 284.255 46.708 284.148 46.3274C283.373 43.7919 282.489 41.9501 281.495 40.802C280.501 39.654 278.865 38.6399 276.587 37.76L274.683 36.9035C275.296 36.6488 275.91 36.394 276.587 36.1423C278.966 35.1907 280.651 34.1275 281.645 32.9529C282.639 31.7782 283.526 29.7983 284.308 27.0131Z" fill="white"/>
<path d="M133.731 29.7021C134.062 28.5602 134.256 28.023 134.311 28.0844C134.477 28.2747 134.697 28.9091 134.973 29.9876C135.691 32.5272 136.603 34.4457 137.709 35.7432C138.816 37.0406 140.473 38.1027 142.681 38.9295C143.732 39.3101 144.258 39.5639 144.258 39.6908C144.258 39.8197 143.733 40.0714 142.681 40.4521C139.972 41.4753 138.132 42.6653 137.16 44.0221C136.189 45.3789 135.264 47.7732 134.385 51.2051C134.385 51.2665 134.357 51.2511 134.302 51.156C134.22 51.0031 134.15 50.8441 134.093 50.6802C134.01 50.4592 133.928 50.2197 133.845 49.968C133.762 49.7163 133.664 49.3971 133.556 49.0164C132.781 46.4768 131.897 44.635 130.903 43.491C129.909 42.3471 128.274 41.332 125.996 40.4459L124.128 39.5987C124.741 39.347 125.37 39.0922 126.032 38.8374C128.411 37.8858 130.097 36.8237 131.09 35.6511C132.084 34.4785 132.964 32.4955 133.731 29.7021Z" fill="white"/>
<path d="M78.334 29.7021C78.6652 28.5602 78.8585 28.023 78.9137 28.0844C79.0793 28.2747 79.3012 28.9091 79.5793 29.9876C80.2929 32.5272 81.2039 34.4457 82.3122 35.7432C83.4205 37.0406 85.0788 38.1027 87.2872 38.9295C88.3362 39.3101 88.8607 39.5639 88.8607 39.6908C88.8607 39.8197 88.3362 40.0714 87.2872 40.4521C84.5799 41.4753 82.7395 42.6653 81.7662 44.0221C80.7929 45.3789 79.8666 47.7732 78.9873 51.2051C78.9873 51.2665 78.9597 51.2511 78.9045 51.156C78.8238 51.0029 78.7551 50.8439 78.699 50.6802C78.6162 50.4592 78.5333 50.2197 78.4505 49.968C78.3677 49.7163 78.2696 49.3971 78.1438 49.0164C77.3709 46.4768 76.4865 44.635 75.4907 43.491C74.4948 42.3471 72.8651 41.332 70.6015 40.4459L68.7059 39.5987C69.3194 39.347 69.9553 39.0932 70.6138 38.8374C72.9878 37.8858 74.6727 36.8237 75.6686 35.6511C76.6644 34.4785 77.5529 32.4955 78.334 29.7021Z" fill="white"/>
</svg>
