<svg width="49" height="48" viewBox="0 0 49 48" fill="none" xmlns="http://www.w3.org/2000/svg">
<g clip-path="url(#clip0_20_357)">
<path d="M40.9965 8.31115C37.9243 6.90738 34.6299 5.87315 31.1854 5.28081C31.1226 5.26937 31.06 5.29794 31.0277 5.35508C30.604 6.10551 30.1347 7.08451 29.806 7.854C26.1012 7.30166 22.4154 7.30166 18.7866 7.854C18.4578 7.06741 17.9715 6.10551 17.5459 5.35508C17.5136 5.29985 17.4509 5.27128 17.3882 5.28081C13.9456 5.87126 10.6511 6.90549 7.57708 8.31115C7.55047 8.32257 7.52766 8.34164 7.51252 8.36638C1.26369 17.6631 -0.448126 26.7313 0.391634 35.6871C0.395434 35.7309 0.420132 35.7728 0.454331 35.7995C4.57713 38.8145 8.57077 40.645 12.4902 41.8582C12.553 41.8773 12.6194 41.8544 12.6594 41.803C13.5865 40.5421 14.413 39.2127 15.1216 37.8146C15.1634 37.7327 15.1235 37.6356 15.038 37.6032C13.7271 37.108 12.4788 36.5042 11.2781 35.8185C11.1831 35.7633 11.1755 35.628 11.2629 35.5632C11.5156 35.3747 11.7683 35.1785 12.0096 34.9804C12.0532 34.9443 12.1141 34.9366 12.1654 34.9595C20.0538 38.546 28.5939 38.546 36.3892 34.9595C36.4405 34.9347 36.5013 34.9424 36.5469 34.9785C36.7882 35.1766 37.0409 35.3747 37.2955 35.5632C37.3829 35.628 37.3772 35.7633 37.2822 35.8185C36.0814 36.5175 34.8332 37.108 33.5203 37.6013C33.4349 37.6337 33.3968 37.7327 33.4387 37.8146C34.1625 39.2107 34.989 40.5402 35.899 41.8011C35.937 41.8544 36.0054 41.8773 36.0681 41.8582C40.0066 40.645 44.0002 38.8145 48.123 35.7995C48.1591 35.7728 48.1819 35.7328 48.1857 35.689C49.1908 25.3351 46.5024 16.3413 41.0592 8.36827C41.0458 8.34164 41.0231 8.32257 40.9965 8.31115ZM16.2996 30.234C13.9247 30.234 11.9678 28.0627 11.9678 25.3961C11.9678 22.7295 13.8867 20.5582 16.2996 20.5582C18.7314 20.5582 20.6694 22.7486 20.6314 25.3961C20.6314 28.0627 18.7124 30.234 16.2996 30.234ZM32.3158 30.234C29.9409 30.234 27.984 28.0627 27.984 25.3961C27.984 22.7295 29.9029 20.5582 32.3158 20.5582C34.7477 20.5582 36.6856 22.7486 36.6476 25.3961C36.6476 28.0627 34.7477 30.234 32.3158 30.234Z" fill="white"/>
</g>
<defs>
<clipPath id="clip0_20_357">
<rect width="48.2008" height="48" fill="white" transform="translate(0.192444)"/>
</clipPath>
</defs>
</svg>
