<svg width="18" height="18" viewBox="0 0 18 18" fill="none" xmlns="http://www.w3.org/2000/svg">
<path d="M13.875 6V2.25M4.125 15.75V12M12 4.125H15.75M2.25 13.875H6M4.875 1.5L4.28666 2.67669C4.08754 3.07492 3.98798 3.27404 3.85498 3.44658C3.73696 3.59969 3.59969 3.73696 3.44658 3.85498C3.27404 3.98798 3.07492 4.08754 2.67669 4.28666L1.5 4.875L2.67669 5.46334C3.07492 5.66246 3.27404 5.76202 3.44659 5.89502C3.59969 6.01304 3.73696 6.15031 3.85498 6.30341C3.98798 6.47596 4.08754 6.67508 4.28666 7.07331L4.875 8.25L5.46334 7.07331C5.66246 6.67508 5.76202 6.47596 5.89502 6.30342C6.01304 6.15031 6.15031 6.01304 6.30342 5.89502C6.47596 5.76202 6.67508 5.66246 7.07331 5.46334L8.25 4.875L7.07331 4.28666C6.67508 4.08754 6.47596 3.98798 6.30341 3.85498C6.15031 3.73696 6.01304 3.59969 5.89502 3.44659C5.76202 3.27404 5.66246 3.07492 5.46334 2.67669L4.875 1.5ZM12.75 9L12.0367 10.4267C11.8375 10.8249 11.738 11.024 11.605 11.1966C11.487 11.3497 11.3497 11.487 11.1966 11.605C11.024 11.738 10.8249 11.8375 10.4267 12.0367L9 12.75L10.4267 13.4633C10.8249 13.6625 11.024 13.762 11.1966 13.895C11.3497 14.013 11.487 14.1503 11.605 14.3034C11.738 14.476 11.8375 14.6751 12.0367 15.0733L12.75 16.5L13.4633 15.0733C13.6625 14.6751 13.762 14.476 13.895 14.3034C14.013 14.1503 14.1503 14.013 14.3034 13.895C14.476 13.762 14.6751 13.6625 15.0733 13.4633L16.5 12.75L15.0733 12.0367C14.6751 11.8375 14.476 11.738 14.3034 11.605C14.1503 11.487 14.013 11.3497 13.895 11.1966C13.762 11.024 13.6625 10.8249 13.4633 10.4267L12.75 9Z" stroke="white" stroke-width="2" stroke-linecap="round" stroke-linejoin="round"/>
</svg>
