<svg width="49" height="48" viewBox="0 0 49 48" fill="none" xmlns="http://www.w3.org/2000/svg">
<g clip-path="url(#clip0_20_354)">
<path fill-rule="evenodd" clip-rule="evenodd" d="M48.5146 24C48.5146 37.2548 37.7245 48 24.4142 48C11.1039 48 0.313782 37.2548 0.313782 24C0.313782 10.7452 11.1039 0 24.4142 0C37.7245 0 48.5146 10.7452 48.5146 24ZM25.2778 17.7179C22.9337 18.6888 18.2488 20.6984 11.223 23.7466C10.0821 24.1984 9.48451 24.6404 9.4301 25.0726C9.33815 25.803 10.2566 26.0906 11.5074 26.4822C11.6775 26.5355 11.8538 26.5907 12.0345 26.6492C13.265 27.0475 14.9203 27.5135 15.7808 27.5321C16.5614 27.5489 17.4326 27.2284 18.3944 26.5707C24.9588 22.158 28.3474 19.9276 28.5601 19.8795C28.7102 19.8456 28.9182 19.803 29.0591 19.9277C29.2 20.0524 29.1861 20.2886 29.1712 20.352C29.0802 20.7383 25.4749 24.0762 23.6091 25.8035C23.0274 26.3421 22.6148 26.724 22.5305 26.8113C22.3416 27.0067 22.149 27.1915 21.964 27.3692C20.8208 28.4667 19.9635 29.2896 22.0114 30.6336C22.9956 31.2794 23.7831 31.8135 24.5688 32.3463C25.4268 32.9282 26.2826 33.5085 27.3898 34.2313C27.6719 34.4155 27.9413 34.6068 28.2038 34.793C29.2023 35.5019 30.0994 36.1388 31.2077 36.0373C31.8517 35.9782 32.5169 35.3752 32.8547 33.5767C33.6531 29.3263 35.2225 20.1169 35.5852 16.3219C35.617 15.9895 35.577 15.5639 35.5449 15.3771C35.5128 15.1904 35.4457 14.9242 35.2019 14.7272C34.9131 14.4939 34.4674 14.4447 34.268 14.4482C33.3615 14.4641 31.9708 14.9456 25.2778 17.7179Z" fill="white"/>
</g>
<defs>
<clipPath id="clip0_20_354">
<rect width="48.2008" height="48" fill="white" transform="translate(0.313782)"/>
</clipPath>
</defs>
</svg>
