<svg width="53" height="53" viewBox="0 0 53 53" fill="none" xmlns="http://www.w3.org/2000/svg">
<path d="M51.8787 6.66061C53.0503 5.48903 53.0503 3.58954 51.8787 2.41796L50.582 1.12132C49.4105 -0.0502504 47.511 -0.0502526 46.3394 1.12132L28.6213 18.8394C27.4497 20.011 25.5503 20.011 24.3787 18.8394L6.66061 1.12132C5.48903 -0.0502516 3.58954 -0.0502524 2.41796 1.12132L1.12132 2.41796C-0.0502504 3.58954 -0.0502526 5.48903 1.12132 6.66061L18.8394 24.3787C20.011 25.5503 20.011 27.4497 18.8394 28.6213L1.12132 46.3394C-0.0502516 47.511 -0.0502524 49.4105 1.12132 50.582L2.41796 51.8787C3.58954 53.0503 5.48903 53.0503 6.66061 51.8787L24.3787 34.1606C25.5503 32.989 27.4497 32.989 28.6213 34.1606L46.3394 51.8787C47.511 53.0503 49.4105 53.0503 50.582 51.8787L51.8787 50.582C53.0503 49.4105 53.0503 47.511 51.8787 46.3394L34.1606 28.6213C32.989 27.4497 32.989 25.5503 34.1606 24.3787L51.8787 6.66061Z" fill="white"/>
</svg>
