<svg width="80" height="80" viewBox="0 0 80 80" fill="none" xmlns="http://www.w3.org/2000/svg">
<path fill-rule="evenodd" clip-rule="evenodd" d="M40 14.6075L39.8566 18.5285C39.4326 30.1225 30.2537 39.4207 18.8139 39.8444L14.6141 40L18.8139 40.1556C30.2537 40.5793 39.4326 49.8775 39.8566 61.4715L40 65.3925L40.1434 61.4715C40.5674 49.8775 49.7463 40.5793 61.1861 40.1556L65.3859 40L61.1861 39.8444C49.7463 39.4207 40.5674 30.1225 40.1434 18.5285L40 14.6075ZM39.4673 4.02533e-09L40.5327 0L41.2088 18.4885C41.6121 29.5169 50.3433 38.3615 61.225 38.7646L80 39.4601V40.5399L61.2251 41.2354C50.3433 41.6385 41.6121 50.4831 41.2088 61.5115L40.5327 80H39.4673L38.7912 61.5115C38.3879 50.4831 29.6567 41.6385 18.7749 41.2354L5.95756e-09 40.5399L0 39.4601L18.7749 38.7646C29.6567 38.3615 38.3879 29.5169 38.7912 18.4885L39.4673 4.02533e-09Z" fill="white"/>
</svg>
