<svg width="50" height="48" viewBox="0 0 50 48" fill="none" xmlns="http://www.w3.org/2000/svg">
<path fill-rule="evenodd" clip-rule="evenodd" d="M17.288 0H32.712C37.5016 0 41.3883 3.8705 41.3883 8.64006C41.3883 11.9825 39.4796 14.8832 36.6891 16.3199C39.4796 17.7567 41.3883 20.6576 41.3883 23.9999C41.3883 28.7695 37.5016 32.64 32.712 32.64C29.9876 32.64 27.5553 31.3876 25.9643 29.4298V39.3599C25.9643 44.1295 22.0775 48 17.288 48C12.4985 48 8.61173 44.1295 8.61173 39.3599C8.61173 36.0175 10.5205 33.1167 13.311 31.6799C10.5205 30.2432 8.61173 27.3423 8.61173 23.9999C8.61173 20.6576 10.5204 17.7567 13.311 16.3199C10.5204 14.8832 8.61173 11.9825 8.61173 8.64006C8.61173 3.8705 12.4985 0 17.288 0ZM10.5398 8.64006C10.5398 4.9309 13.5633 1.92 17.288 1.92H24.0358V15.3599H17.288L17.2671 15.3599C13.5519 15.3487 10.5398 12.3422 10.5398 8.64006ZM24.0362 23.9086C24.0359 23.939 24.0358 23.9694 24.0358 23.9999C24.0358 24.0304 24.0359 24.0609 24.0362 24.0913V30.7198H17.288C13.5633 30.72 10.5398 27.7091 10.5398 23.9999C10.5398 20.2977 13.5521 17.2911 17.2673 17.2799L17.288 17.2799H24.0358L24.0362 23.9086ZM25.9643 24.0804V23.9195C26.0075 20.2565 28.9993 17.2947 32.6844 17.2799H32.712C32.7189 17.2799 32.7259 17.2799 32.7328 17.2799C36.448 17.2911 39.4603 20.2977 39.4603 23.9999C39.4603 27.7091 36.4368 30.72 32.712 30.72C29.0143 30.72 26.0076 27.7526 25.9643 24.0804ZM27.2599 17.2799C26.7839 17.6635 26.3494 18.0961 25.9643 18.5701V17.2799H27.2599ZM32.7329 15.3599C32.726 15.3599 32.719 15.3599 32.712 15.3599C32.7015 15.3599 32.6909 15.3599 32.6804 15.3599H25.9643V1.92H32.712C36.4368 1.92 39.4603 4.9309 39.4603 8.64006C39.4603 12.3422 36.4481 15.3487 32.7329 15.3599ZM17.288 32.6399C13.5633 32.6399 10.5398 35.6508 10.5398 39.3599C10.5398 43.0691 13.5633 46.08 17.288 46.08C21.0127 46.08 24.0362 43.0691 24.0362 39.3599V32.6399H17.288Z" fill="white"/>
</svg>
