<svg width="49" height="48" viewBox="0 0 49 48" fill="none" xmlns="http://www.w3.org/2000/svg">
<g clip-path="url(#clip0_20_355)">
<path fill-rule="evenodd" clip-rule="evenodd" d="M24.7076 1C18.9862 1.00296 13.4524 3.02092 9.09576 6.69305C4.73908 10.3652 1.84361 15.452 0.927076 21.044C0.0105394 26.636 1.1327 32.3684 4.09292 37.2164C7.05314 42.0643 11.6584 45.7115 17.0852 47.5059C18.2824 47.7272 18.7334 46.9883 18.7334 46.36C18.7334 45.7317 18.7094 43.91 18.7014 41.9184C11.9969 43.3608 10.5802 39.101 10.5802 39.101C9.4867 36.3349 7.90634 35.6078 7.90634 35.6078C5.71938 34.1299 8.06998 34.1576 8.06998 34.1576C10.4924 34.3275 11.7655 36.6194 11.7655 36.6194C13.9125 40.2667 17.4044 39.2116 18.7773 38.5952C18.9928 37.0501 19.6193 35.999 20.3097 35.4023C14.9541 34.8017 9.32706 32.7548 9.32706 23.6108C9.29387 21.2394 10.1826 18.9461 11.8094 17.2054C11.5619 16.6047 10.7358 14.1785 12.0448 10.8829C12.0448 10.8829 14.0681 10.2427 18.6735 13.3289C22.6237 12.2592 26.7915 12.2592 30.7417 13.3289C35.3431 10.2427 37.3624 10.8829 37.3624 10.8829C38.6754 14.1706 37.8493 16.5968 37.6019 17.2054C39.2338 18.9464 40.1244 21.2437 40.0881 23.6187C40.0881 32.7824 34.4491 34.8017 29.0855 35.3905C29.9475 36.1334 30.7177 37.5836 30.7177 39.8122C30.7177 43.0051 30.6898 45.5736 30.6898 46.36C30.6898 46.9962 31.1248 47.7391 32.346 47.5059C37.7734 45.7113 42.3791 42.0634 45.3393 37.2147C48.2994 32.3659 49.421 26.6326 48.5034 21.0401C47.5858 15.4476 44.6889 10.3607 40.3308 6.68921C35.9727 3.01771 30.4376 1.00108 24.7156 1H24.7076Z" fill="white"/>
<path d="M9.73359 35.264C9.68171 35.3826 9.49015 35.4181 9.33451 35.3351C9.17887 35.2522 9.06315 35.098 9.11902 34.9755C9.17489 34.853 9.36246 34.8214 9.5181 34.9044C9.67374 34.9874 9.79345 35.1455 9.73359 35.264Z" fill="white"/>
<path d="M10.7114 36.3428C10.6287 36.384 10.5342 36.3955 10.4439 36.3753C10.3536 36.3551 10.2733 36.3045 10.2165 36.2321C10.0609 36.0662 10.0289 35.837 10.1487 35.7342C10.2684 35.6315 10.4839 35.6789 10.6395 35.8449C10.7952 36.0108 10.8311 36.24 10.7114 36.3428Z" fill="white"/>
<path d="M11.6612 37.7141C11.5136 37.8168 11.2621 37.7141 11.1225 37.5086C11.0838 37.4717 11.0531 37.4275 11.0321 37.3786C11.0112 37.3298 11.0003 37.2772 11.0003 37.2241C11.0003 37.171 11.0112 37.1184 11.0321 37.0695C11.0531 37.0206 11.0838 36.9764 11.1225 36.9396C11.2701 36.8408 11.5216 36.9396 11.6612 37.1411C11.8009 37.3426 11.8049 37.6113 11.6612 37.7141Z" fill="white"/>
<path d="M12.9502 39.0417C12.8185 39.1879 12.5512 39.1484 12.3317 38.9509C12.1122 38.7533 12.0603 38.4846 12.192 38.3423C12.3237 38.2001 12.5911 38.2396 12.8185 38.4332C13.046 38.6268 13.0899 38.8995 12.9502 39.0417Z" fill="white"/>
<path d="M14.758 39.8163C14.6981 40.002 14.4268 40.085 14.1554 40.006C13.884 39.9269 13.7044 39.7056 13.7563 39.516C13.8082 39.3263 14.0836 39.2394 14.3589 39.3263C14.6343 39.4132 14.8099 39.6227 14.758 39.8163Z" fill="white"/>
<path d="M16.7295 39.9506C16.7295 40.1442 16.5061 40.3102 16.2187 40.3141C15.9314 40.3181 15.6959 40.16 15.6959 39.9664C15.6959 39.7728 15.9194 39.6068 16.2067 39.6029C16.4941 39.5989 16.7295 39.753 16.7295 39.9506Z" fill="white"/>
<path d="M18.5653 39.6463C18.6012 39.84 18.4017 40.0415 18.1144 40.0889C17.827 40.1363 17.5756 40.0217 17.5397 39.8321C17.5038 39.6424 17.7113 39.4369 17.9906 39.3855C18.27 39.3342 18.5294 39.4527 18.5653 39.6463Z" fill="white"/>
</g>
<defs>
<clipPath id="clip0_20_355">
<rect width="48.2008" height="48" fill="white" transform="translate(0.606689)"/>
</clipPath>
</defs>
</svg>
